# xmcd CD database file
#
# Track frame offsets:
#	150
#	17060
#	33862
#	54657
#	69777
#	87695
#	115137
#	132397
#	147760
#	161960
#	174292
#
# Disc length: 2717 seconds
#
# Revision: 2
# Processed by: cddbd v1.4b41PL1 Copyright (c) Steve Scherf et al.
# Submitted via: Feurio! 1.51.5ß - http://www.feurio.com
#
DISCID=920a9b0b
DTITLE=Kasa Chorych - Blues Band
DYEAR=1900
DGENRE=
TTITLE0=BluesChorego
TTITLE1=Ameryka i Ja
TTITLE2=So many Faces
TTITLE3=MPO Blues
TTITLE4=Musze radzic sobie sam
TTITLE5=Every Time I See You
TTITLE6=Jak sie czujesz ze mna w lozku
TTITLE7=Don´t Be So
TTITLE8=Ide z zyciem
TTITLE9=Przed nami drzwi zamkniete
TTITLE10=Kasa Chorych
EXTD=
EXTT0=
EXTT1=
EXTT2=
EXTT3=
EXTT4=
EXTT5=
EXTT6=
EXTT7=
EXTT8=
EXTT9=
EXTT10=
PLAYORDER=
